<svg xmlns="http://www.w3.org/2000/svg" viewBox="0 0 240 240" stroke-linejoin="round"><style>.sl{transform-origin:50px 50px;animation:sl 1.2s ease-in 5 both}.sr{transform-origin:190px 50px;animation:sr 1.2s ease-in 5 both}@keyframes sl{0%,40%,100%{transform:translate(-4px,-22px) rotate(4deg)}25%{transform:translate(0,0) rotate(0)}}@keyframes sr{0%,50%,90%,100%{transform:translate(4px,-22px) rotate(-4deg)}75%{transform:translate(0,0) rotate(0)}}.dr{transform-origin:120px 196px;animation:dr .6s ease-out 10 both}@keyframes dr{0%,100%{transform:scale(1)}45%{transform:scale(1.03,.96)}}.bl{animation:bl 1.2s ease-out 5 both}.br{animation:br 1.2s ease-out 5 both}@keyframes bl{0%,22%,55%,100%{opacity:0}28%,40%{opacity:1}}@keyframes br{0%,72%,100%{opacity:0}78%,90%{opacity:1}}@media (prefers-reduced-motion:reduce){*{animation:none!important}}</style><path d="M226.2,122C226.1,136.7 219,153.5 211.2,165.9C203.4,178.3 191,188.1 179.4,196.5C167.8,204.8 155.1,211.9 141.5,216C127.8,220.1 111.7,223.2 97.4,221C83.1,218.8 66.8,212.2 55.4,203C44.1,193.7 34.2,179.1 29.4,165.6C24.7,152.1 26.5,136.3 27,122C27.5,107.7 28.2,93.8 32.5,79.9C36.9,65.9 42.4,48 53.1,38.1C63.8,28.3 82.1,22.6 96.9,20.6C111.6,18.7 128.2,21.8 141.8,26.4C155.5,31 167.2,39.7 178.8,48.3C190.4,56.9 203.5,65.7 211.4,78C219.3,90.3 226.2,107.3 226.2,122Z" fill="#E4F2FF"/><ellipse cx="120" cy="206" rx="70" ry="8" fill="#1B2340" opacity=".1"/><g class="dr"><path d="M56,122 V178 A64,20 0 0 0 184,178 V122 Z" fill="#FF6B6B" stroke="#C92A2A" stroke-width="4"/><path d="M66,136 L84,178 L102,140 L120,182 L138,140 L156,178 L174,136" fill="none" stroke="#FFD43B" stroke-width="5" stroke-linecap="round"/><g fill="#FFD43B" stroke="#E0A800" stroke-width="2"><circle cx="66" cy="136" r="4"/><circle cx="102" cy="140" r="4"/><circle cx="138" cy="140" r="4"/><circle cx="174" cy="136" r="4"/><circle cx="84" cy="178" r="4"/><circle cx="120" cy="182" r="4"/><circle cx="156" cy="178" r="4"/></g><path d="M56,172 A64,20 0 0 0 184,172 V180 A64,20 0 0 1 56,180 Z" fill="#4DABF7" stroke="#1C7ED6" stroke-width="3.5"/><path d="M56,122 A64,20 0 0 0 184,122 V130 A64,20 0 0 1 56,130 Z" fill="#4DABF7" stroke="#1C7ED6" stroke-width="3.5"/><ellipse cx="120" cy="122" rx="64" ry="20" fill="#FFF8E7" stroke="#1C7ED6" stroke-width="4"/><ellipse cx="120" cy="122" rx="52" ry="14" fill="none" stroke="#F0E2C4" stroke-width="2.5"/></g><g class="sl"><path d="M50,50 L104,112" stroke="#8B5A2B" stroke-width="11" stroke-linecap="round"/><path d="M50,50 L104,112" stroke="#D9A066" stroke-width="5" stroke-linecap="round"/><circle cx="106" cy="114" r="8" fill="#FF922B" stroke="#D9690F" stroke-width="3"/></g><g class="sr"><path d="M190,50 L136,112" stroke="#8B5A2B" stroke-width="11" stroke-linecap="round"/><path d="M190,50 L136,112" stroke="#D9A066" stroke-width="5" stroke-linecap="round"/><circle cx="134" cy="114" r="8" fill="#FF922B" stroke="#D9690F" stroke-width="3"/></g><g fill="none" stroke="#FF922B" stroke-width="4" stroke-linecap="round"><path class="bl" d="M38,104 L26,96 M36,118 L22,118 M38,132 L26,140"/><path class="br" d="M202,104 L214,96 M204,118 L218,118 M202,132 L214,140"/></g></svg>
