<svg xmlns="http://www.w3.org/2000/svg" viewBox="0 0 240 240"><style>.a{animation:a 2s ease-in-out 4 both}@keyframes a{0%,100%{transform:translate(14px,14px)}35%,65%{transform:translate(0,0)}}.b{transform-box:fill-box;transform-origin:center;animation:b 2s ease-in-out 4 both}@keyframes b{0%,30%,75%,100%{transform:scale(0)}45%,60%{transform:scale(1)}}.h{transform-origin:120px 118px;animation:h 2s ease-in-out 4 both}@keyframes h{0%,30%,75%,100%{transform:rotate(0)}50%{transform:rotate(-4deg)}}@media (prefers-reduced-motion:reduce){*{animation:none!important}}</style><path d="M225.9,122C227.3,136.7 223.1,155.4 215.5,168C207.9,180.6 192.7,190 180.3,197.6C167.8,205.2 154.7,210.1 140.9,213.7C127.2,217.3 112.4,220.4 97.9,219C83.3,217.6 65.6,213.8 53.7,205.2C41.7,196.6 30.8,181 26.2,167.2C21.6,153.3 24.5,136.3 26.2,122C27.8,107.7 31.2,95.1 36.1,81.6C40.9,68.1 45.3,51.3 55.3,40.9C65.4,30.5 82,22 96.5,19C111,16.1 129.1,18 142.6,23.1C156.1,28.3 166.7,40.5 177.4,50C188.2,59.4 199.2,68 207.3,80C215.4,92 224.6,107.3 225.9,122Z" fill="#FFE4EC"/><ellipse cx="120" cy="212" rx="44" ry="7" fill="#1B2340" opacity=".1"/><path d="M110,170 L108,200 M130,170 L132,200" fill="none" stroke="#2C3E7A" stroke-width="17" stroke-linecap="round"/><path d="M110,170 L108,200 M130,170 L132,200" fill="none" stroke="#4659C4" stroke-width="11" stroke-linecap="round"/><ellipse cx="105" cy="204" rx="12" ry="7" fill="#FFD43B" stroke="#E0A800" stroke-width="3"/><ellipse cx="135" cy="204" rx="12" ry="7" fill="#FFD43B" stroke="#E0A800" stroke-width="3"/><path d="M100,128 L84,156" fill="none" stroke="#D9480F" stroke-width="15" stroke-linecap="round"/><path d="M100,128 L84,156" fill="none" stroke="#FF922B" stroke-width="9" stroke-linecap="round"/><circle cx="82" cy="160" r="7.5" fill="#F6CFA9" stroke="#D39B73" stroke-width="3"/><path d="M98,120 Q120,112 142,120 L150,172 Q120,180 90,172 Z" fill="#FF922B" stroke="#D9480F" stroke-width="4" stroke-linejoin="round"/><path d="M95,140 Q120,148 147,140 M93,156 Q120,164 149,156" fill="none" stroke="#FFC078" stroke-width="5" stroke-linecap="round"/><g class="h"><circle cx="86" cy="90" r="7" fill="#F6CFA9" stroke="#D39B73" stroke-width="3"/><circle cx="154" cy="90" r="7" fill="#F6CFA9" stroke="#D39B73" stroke-width="3"/><circle cx="120" cy="86" r="34" fill="#F6CFA9" stroke="#D39B73" stroke-width="4"/><path d="M86,84 C84,58 102,48 120,48 C142,48 158,60 154,84 C148,74 140,68 130,66 C124,74 110,78 96,74 C92,78 88,80 86,84 Z" fill="#C2541E" stroke="#8A3410" stroke-width="3.5" stroke-linejoin="round"/><circle cx="106" cy="86" r="4.5" fill="#2B2A4C"/><circle cx="134" cy="86" r="4.5" fill="#2B2A4C"/><circle cx="107.6" cy="84.4" r="1.6" fill="#fff"/><circle cx="135.6" cy="84.4" r="1.6" fill="#fff"/><ellipse cx="120" cy="96" rx="6" ry="5" fill="#F4A98A" stroke="#D39B73" stroke-width="2.5"/><path d="M110,104 Q120,116 130,104 Z" fill="#E8505B" stroke="#2B2A4C" stroke-width="3" stroke-linejoin="round"/><ellipse cx="98" cy="100" rx="6" ry="4" fill="#FF8FA3" opacity=".6"/><ellipse cx="142" cy="100" rx="6" ry="4" fill="#FF8FA3" opacity=".6"/></g><g class="a"><path d="M140,127 L162,140 L136,108" fill="none" stroke="#D9480F" stroke-width="15" stroke-linecap="round" stroke-linejoin="round"/><path d="M140,127 L162,140 L136,108" fill="none" stroke="#FF922B" stroke-width="9" stroke-linecap="round" stroke-linejoin="round"/><circle cx="135" cy="106" r="8" fill="#F6CFA9" stroke="#D39B73" stroke-width="3"/><path d="M131,102 L125,97" stroke="#D39B73" stroke-width="8" stroke-linecap="round"/><path d="M131,102 L125,97" stroke="#F6CFA9" stroke-width="3.5" stroke-linecap="round"/></g><g fill="#FFD43B" stroke="#E0A800" stroke-width="2" stroke-linejoin="round"><path class="b" d="M168,70 L170.6,76.4 L177.5,76.9 L172.2,81.4 L173.9,88.1 L168,84.4 L162.1,88.1 L163.8,81.4 L158.5,76.9 L165.4,76.4Z"/><path class="b" d="M70,62 L71.8,66.5 L76.6,66.8 L72.9,70 L74.1,74.7 L70,72.1 L65.9,74.7 L67.1,70 L63.4,66.8 L68.2,66.5Z"/></g></svg>
