<svg xmlns="http://www.w3.org/2000/svg" viewBox="0 0 240 240"><style>.bn{transform-origin:120px 48px;animation:bn 2.6s ease-in-out 4 both}@keyframes bn{0%,100%{transform:rotate(0)}30%{transform:rotate(-6deg)}70%{transform:rotate(5deg)}}.ey{transform-origin:120px 112px;animation:ey 2.6s 4 both}@keyframes ey{0%,60%,66%,100%{transform:scaleY(1)}63%{transform:scaleY(.1)}}.sk{transform-box:fill-box;transform-origin:center;animation:sk 2.6s ease-in-out 4 both}.sk2{animation-delay:.9s}@keyframes sk{0%,100%{transform:scale(0) rotate(0)}40%{transform:scale(1) rotate(45deg)}70%{transform:scale(0) rotate(90deg)}}@media (prefers-reduced-motion:reduce){*{animation:none!important}}</style><path d="M216.8,122C215.7,136.4 212,150.2 206.6,163.7C201.2,177.2 195.2,192.7 184.7,203.1C174.2,213.6 158.4,223.2 143.8,226.3C129.2,229.4 110.8,227.3 97.2,222C83.6,216.6 73.1,203.9 62.4,194.2C51.7,184.6 41.1,175.9 33,163.9C24.9,151.9 15.3,136.6 14,122C12.6,107.4 17.4,89.1 24.7,76.1C32,63.1 45.3,51.3 57.8,44C70.2,36.6 85.4,35 99.4,31.9C113.5,28.8 127.8,24 142.1,25.4C156.3,26.8 173.3,31.6 185.2,40.2C197.1,48.9 207.9,63.5 213.2,77.1C218.5,90.7 217.9,107.6 216.8,122Z" fill="#E3F8EC"/><ellipse cx="120" cy="208" rx="46" ry="7" fill="#1B2340" opacity=".1"/><g class="bn"><path d="M120,72 C120,60 122,52 128,42" fill="none" stroke="#7E4E24" stroke-width="7" stroke-linecap="round"/><path d="M126,52 C138,34 164,34 176,44 C164,60 140,62 126,52 Z" fill="#69C36B" stroke="#2F8A3A" stroke-width="3.5" stroke-linejoin="round"/><path d="M132,51 Q152,46 168,45" fill="none" stroke="#2F8A3A" stroke-width="2.5" stroke-linecap="round"/><g fill="#9C4DCC" stroke="#6A2C91" stroke-width="3.5"><circle cx="120" cy="184" r="17"/><circle cx="104" cy="158" r="17"/><circle cx="136" cy="158" r="17"/><circle cx="88" cy="132" r="17"/><circle cx="152" cy="132" r="17"/><circle cx="78" cy="88" r="17"/><circle cx="162" cy="88" r="17"/><circle cx="120" cy="134" r="17"/><circle cx="102" cy="84" r="17"/><circle cx="138" cy="84" r="17"/><circle cx="96" cy="110" r="17"/><circle cx="144" cy="110" r="17"/><circle cx="120" cy="108" r="17"/></g><g fill="#fff" opacity=".55"><circle cx="114" cy="178" r="4"/><circle cx="98" cy="152" r="4"/><circle cx="130" cy="152" r="4"/><circle cx="82" cy="126" r="4"/><circle cx="146" cy="126" r="4"/><circle cx="114" cy="128" r="4"/><circle cx="72" cy="82" r="4"/><circle cx="156" cy="82" r="4"/><circle cx="96" cy="78" r="4"/><circle cx="132" cy="78" r="4"/><circle cx="90" cy="104" r="3"/><circle cx="160" cy="104" r="3"/></g><g class="ey"><circle cx="108" cy="114" r="5" fill="#2B2A4C"/><circle cx="132" cy="114" r="5" fill="#2B2A4C"/><circle cx="109.8" cy="112.2" r="1.8" fill="#fff"/><circle cx="133.8" cy="112.2" r="1.8" fill="#fff"/></g><path d="M112,124 Q120,133 128,124" fill="none" stroke="#2B2A4C" stroke-width="3.5" stroke-linecap="round"/><ellipse cx="100" cy="123" rx="5.5" ry="3.5" fill="#FF8FC8" opacity=".85"/><ellipse cx="140" cy="123" rx="5.5" ry="3.5" fill="#FF8FC8" opacity=".85"/></g><g fill="#FFD43B" stroke="#E0A800" stroke-width="2" stroke-linejoin="round"><path class="sk" d="M190,124 L194,134 L204,138 L194,142 L190,152 L186,142 L176,138 L186,134 Z"/><path class="sk sk2" d="M48,150 L51,157 L58,160 L51,163 L48,170 L45,163 L38,160 L45,157 Z"/></g></svg>
