<svg xmlns="http://www.w3.org/2000/svg" viewBox="0 0 240 240"><style>.g{transform-origin:120px 168px;animation:g 2.8s ease-in-out 3 both}@keyframes g{0%,100%{transform:translateY(0) rotate(0)}45%,65%{transform:translateY(-8px) rotate(-6deg)}}.sw{animation:sw 1.4s ease-in 6 both}@keyframes sw{0%{transform:translateY(0);opacity:0}20%{opacity:1}100%{transform:translateY(16px);opacity:0}}.tb{transform-origin:190px 60px;animation:tb 2.8s ease-in-out 3 both}@keyframes tb{0%,100%{transform:scale(1)}50%{transform:scale(1.1)}}.sn{transform-origin:46px 50px;animation:sn 2.8s ease-in-out 3 both}@keyframes sn{0%,100%{transform:rotate(0)}50%{transform:rotate(30deg)}}@media (prefers-reduced-motion:reduce){*{animation:none!important}}</style><path d="M225.9,122C227.3,136.7 223.1,155.4 215.5,168C207.9,180.6 192.7,190 180.3,197.6C167.8,205.2 154.7,210.1 140.9,213.7C127.2,217.3 112.4,220.4 97.9,219C83.3,217.6 65.6,213.8 53.7,205.2C41.7,196.6 30.8,181 26.2,167.2C21.6,153.3 24.5,136.3 26.2,122C27.8,107.7 31.2,95.1 36.1,81.6C40.9,68.1 45.3,51.3 55.3,40.9C65.4,30.5 82,22 96.5,19C111,16.1 129.1,18 142.6,23.1C156.1,28.3 166.7,40.5 177.4,50C188.2,59.4 199.2,68 207.3,80C215.4,92 224.6,107.3 225.9,122Z" fill="#FFF1C9"/><g class="sn"><g stroke="#FFB703" stroke-width="4" stroke-linecap="round"><path d="M46,24 V30 M46,70 V76 M20,50 H26 M66,50 H72 M28,32 L32,36 M60,64 L64,68 M64,32 L60,36 M32,64 L28,68"/></g><circle cx="46" cy="50" r="14" fill="#FFD43B" stroke="#E0A800" stroke-width="3"/></g><ellipse cx="120" cy="212" rx="44" ry="7" fill="#1B2340" opacity=".1"/><path d="M110,170 L108,200 M130,170 L132,200" fill="none" stroke="#2C3E7A" stroke-width="17" stroke-linecap="round"/><path d="M110,170 L108,200 M130,170 L132,200" fill="none" stroke="#4659C4" stroke-width="11" stroke-linecap="round"/><ellipse cx="105" cy="204" rx="12" ry="7" fill="#FF6B6B" stroke="#C94545" stroke-width="3"/><ellipse cx="135" cy="204" rx="12" ry="7" fill="#FF6B6B" stroke="#C94545" stroke-width="3"/><path d="M98,120 Q120,112 142,120 L150,172 Q120,180 90,172 Z" fill="#6CC04A" stroke="#3E8E2A" stroke-width="4" stroke-linejoin="round"/><path d="M110,119 Q120,127 130,119" fill="none" stroke="#3E8E2A" stroke-width="3" stroke-linecap="round"/><path d="M100,128 L94,152 L106,160 M140,128 L146,152 L134,160" fill="none" stroke="#D39B73" stroke-width="15" stroke-linecap="round" stroke-linejoin="round"/><path d="M100,128 L94,152 L106,160 M140,128 L146,152 L134,160" fill="none" stroke="#F6CFA9" stroke-width="9" stroke-linecap="round" stroke-linejoin="round"/><g class="g"><path d="M104,128 H136 L132,172 H108 Z" fill="#fff" fill-opacity=".85" stroke="#7FA7C9" stroke-width="3.5" stroke-linejoin="round"/><path d="M106,146 Q113,142 120,146 Q127,150 134,146 L132,170 H108 Z" fill="#6FC3FF"/><path d="M110,134 V164" stroke="#fff" stroke-width="3" stroke-linecap="round"/><circle cx="107" cy="160" r="7.5" fill="#F6CFA9" stroke="#D39B73" stroke-width="3"/><circle cx="133" cy="160" r="7.5" fill="#F6CFA9" stroke="#D39B73" stroke-width="3"/></g><circle cx="86" cy="90" r="7" fill="#F6CFA9" stroke="#D39B73" stroke-width="3"/><circle cx="154" cy="90" r="7" fill="#F6CFA9" stroke="#D39B73" stroke-width="3"/><circle cx="120" cy="86" r="34" fill="#F6CFA9" stroke="#D39B73" stroke-width="4"/><path d="M86,84 C84,58 102,48 120,48 C142,48 158,60 154,84 C148,74 140,68 130,66 C124,74 110,78 96,74 C92,78 88,80 86,84 Z" fill="#5B3A29" stroke="#3E2518" stroke-width="3.5" stroke-linejoin="round"/><path d="M102,86 Q108,82 114,86 M126,86 Q132,82 138,86" fill="none" stroke="#2B2A4C" stroke-width="2.5" stroke-linecap="round"/><circle cx="108" cy="92" r="4.5" fill="#2B2A4C"/><circle cx="132" cy="92" r="4.5" fill="#2B2A4C"/><circle cx="109.6" cy="90.4" r="1.6" fill="#fff"/><circle cx="133.6" cy="90.4" r="1.6" fill="#fff"/><ellipse cx="120" cy="106" rx="7" ry="6" fill="#8E2F3C" stroke="#2B2A4C" stroke-width="2.5"/><path d="M116,108 Q120,118 124,108 Z" fill="#FF7A99" stroke="#D9577A" stroke-width="1.5"/><ellipse cx="98" cy="102" rx="6" ry="4" fill="#FF8FA3" opacity=".6"/><ellipse cx="142" cy="102" rx="6" ry="4" fill="#FF8FA3" opacity=".6"/><path class="sw" d="M150,62 Q145,70 150,74 Q155,70 150,62 Z" fill="#6FC3FF" stroke="#2E8BD6" stroke-width="2"/><circle cx="160" cy="84" r="4" fill="#fff" stroke="#9AA3C7" stroke-width="2"/><circle cx="168" cy="72" r="6" fill="#fff" stroke="#9AA3C7" stroke-width="2.5"/><g class="tb"><circle cx="190" cy="52" r="24" fill="#fff" stroke="#9AA3C7" stroke-width="3"/><path d="M190,34 C182,46 180,52 180,58 A10,10 0 0 0 200,58 C200,52 198,46 190,34 Z" fill="#6FC3FF" stroke="#2E8BD6" stroke-width="3" stroke-linejoin="round"/><ellipse cx="185" cy="56" rx="2.5" ry="4" fill="#fff" opacity=".8"/></g></svg>
