<svg xmlns="http://www.w3.org/2000/svg" viewBox="0 0 240 240"><style>.ey{transform-origin:0px -112px;animation:ey 3s 4 both}@keyframes ey{0%,40%,44%,100%{transform:scaleY(1)}42%{transform:scaleY(.1)}}.bb{animation:bb 2.4s ease-in-out 4 both}@keyframes bb{0%,100%{transform:translateY(0)}50%{transform:translateY(-5px)}}.sn{transform-origin:196px 46px;animation:sn 6s linear 3 both}@keyframes sn{to{transform:rotate(90deg)}}.sp{transform-box:fill-box;transform-origin:center bottom;animation:spr 2.4s ease-in-out 4 both}@keyframes spr{0%,100%{transform:rotate(-6deg)}50%{transform:rotate(6deg)}}@media (prefers-reduced-motion:reduce){*{animation:none!important}}</style><path d="M216.8,122C215.7,136.4 212,150.2 206.6,163.7C201.2,177.2 195.2,192.7 184.7,203.1C174.2,213.6 158.4,223.2 143.8,226.3C129.2,229.4 110.8,227.3 97.2,222C83.6,216.6 73.1,203.9 62.4,194.2C51.7,184.6 41.1,175.9 33,163.9C24.9,151.9 15.3,136.6 14,122C12.6,107.4 17.4,89.1 24.7,76.1C32,63.1 45.3,51.3 57.8,44C70.2,36.6 85.4,35 99.4,31.9C113.5,28.8 127.8,24 142.1,25.4C156.3,26.8 173.3,31.6 185.2,40.2C197.1,48.9 207.9,63.5 213.2,77.1C218.5,90.7 217.9,107.6 216.8,122Z" fill="#E3F8EC"/><g class="sn"><g stroke="#FFB703" stroke-width="4" stroke-linecap="round"><path d="M196,46 m0,-16 v-7" transform="rotate(0 196 46)"/><path d="M196,46 m0,-16 v-7" transform="rotate(45 196 46)"/><path d="M196,46 m0,-16 v-7" transform="rotate(90 196 46)"/><path d="M196,46 m0,-16 v-7" transform="rotate(135 196 46)"/><path d="M196,46 m0,-16 v-7" transform="rotate(180 196 46)"/><path d="M196,46 m0,-16 v-7" transform="rotate(225 196 46)"/><path d="M196,46 m0,-16 v-7" transform="rotate(270 196 46)"/><path d="M196,46 m0,-16 v-7" transform="rotate(315 196 46)"/></g><circle cx="196" cy="46" r="11" fill="#FFD43B" stroke="#E0A800" stroke-width="3"/></g><path d="M24,182 Q120,166 216,182 L210,206 Q120,224 30,206 Z" fill="#B9845A" stroke="#8A5A2B" stroke-width="3.5" stroke-linejoin="round"/><path d="M40,194 Q120,182 200,194" fill="none" stroke="#9A6A42" stroke-width="3" stroke-linecap="round"/><g class="sp"><path d="M40,188 Q32,176 30,170 M40,188 Q48,176 50,170 M40,188 V172" fill="none" stroke="#3FA65A" stroke-width="4" stroke-linecap="round"/></g><g class="sp"><path d="M62,188 Q54,176 52,170 M62,188 Q70,176 72,170 M62,188 V172" fill="none" stroke="#3FA65A" stroke-width="4" stroke-linecap="round"/></g><g class="sp"><path d="M178,188 Q170,176 168,170 M178,188 Q186,176 188,170 M178,188 V172" fill="none" stroke="#3FA65A" stroke-width="4" stroke-linecap="round"/></g><g class="sp"><path d="M200,188 Q192,176 190,170 M200,188 Q208,176 210,170 M200,188 V172" fill="none" stroke="#3FA65A" stroke-width="4" stroke-linecap="round"/></g><ellipse cx="116" cy="206" rx="40" ry="6" fill="#1B2340" opacity=".1"/><g class="bb"><g transform="translate(116,202) scale(0.9)"><path d="M-10,-34 L-12,-4" fill="none" stroke="#2B5DB0" stroke-width="17" stroke-linecap="round" stroke-linejoin="round"/><path d="M-10,-34 L-12,-4" fill="none" stroke="#4C8DF6" stroke-width="11" stroke-linecap="round" stroke-linejoin="round"/><path d="M10,-34 L12,-4" fill="none" stroke="#2B5DB0" stroke-width="17" stroke-linecap="round" stroke-linejoin="round"/><path d="M10,-34 L12,-4" fill="none" stroke="#4C8DF6" stroke-width="11" stroke-linecap="round" stroke-linejoin="round"/><ellipse cx="-15" cy="0" rx="12" ry="7" fill="#8A5A2B" stroke="#5E3A18" stroke-width="3"/><ellipse cx="15" cy="0" rx="12" ry="7" fill="#8A5A2B" stroke="#5E3A18" stroke-width="3"/><path d="M-22,-84 Q0,-92 22,-84 L30,-32 Q0,-24 -30,-32 Z" fill="#FF6B6B" stroke="#C94545" stroke-width="4" stroke-linejoin="round"/><path d="M-10,-85 Q0,-77 10,-85" fill="none" stroke="#C94545" stroke-width="3" stroke-linecap="round"/><g transform="translate(0,18)"><g transform="translate(0,-12)"><path d="M-20,-62 L-10,-100 L-2,-62 Z" fill="#FF8A3D" stroke="#C25A14" stroke-width="3" stroke-linejoin="round"/><path d="M-10,-100 L-16,-110 M-10,-100 L-8,-112 M-10,-100 L-2,-108" stroke="#3FA65A" stroke-width="4" stroke-linecap="round"/><circle cx="18" cy="-72" r="13" fill="#7EDC92" stroke="#2E8F48" stroke-width="3"/><path d="M12,-76 Q18,-66 24,-76" fill="none" stroke="#2E8F48" stroke-width="2"/><circle cx="2" cy="-68" r="11" fill="#F0384E" stroke="#B5182F" stroke-width="3"/><path d="M-3,-79 L2,-75 L7,-79" stroke="#2E8F48" stroke-width="3" stroke-linecap="round" fill="none"/></g><path d="M-34,-64 H34 L27,-28 H-27 Z" fill="#D9A066" stroke="#8A5A2B" stroke-width="4" stroke-linejoin="round"/><path d="M-31,-50 H31 M-29,-38 H29" stroke="#B07A45" stroke-width="3"/></g><path d="M-20,-76 L-38,-56 L-32,-36" fill="none" stroke="#D39B73" stroke-width="15" stroke-linecap="round" stroke-linejoin="round"/><path d="M-20,-76 L-38,-56 L-32,-36" fill="none" stroke="#F6CFA9" stroke-width="9" stroke-linecap="round" stroke-linejoin="round"/><circle cx="-32" cy="-36" r="7.5" fill="#F6CFA9" stroke="#D39B73" stroke-width="3"/><path d="M20,-76 L38,-56 L32,-36" fill="none" stroke="#D39B73" stroke-width="15" stroke-linecap="round" stroke-linejoin="round"/><path d="M20,-76 L38,-56 L32,-36" fill="none" stroke="#F6CFA9" stroke-width="9" stroke-linecap="round" stroke-linejoin="round"/><circle cx="32" cy="-36" r="7.5" fill="#F6CFA9" stroke="#D39B73" stroke-width="3"/><circle cx="-34" cy="-114" r="7" fill="#F6CFA9" stroke="#D39B73" stroke-width="3"/><circle cx="34" cy="-114" r="7" fill="#F6CFA9" stroke="#D39B73" stroke-width="3"/><circle cx="0" cy="-118" r="34" fill="#F6CFA9" stroke="#D39B73" stroke-width="4"/><path d="M-34,-120 C-36,-146 -18,-156 0,-156 C22,-156 38,-144 34,-120 C28,-130 20,-136 10,-138 C4,-130 -10,-126 -24,-130 C-28,-126 -32,-124 -34,-120 Z" fill="#5B3A29" stroke="#3E2518" stroke-width="3.5" stroke-linejoin="round"/><g class="ey"><circle cx="-12" cy="-112" r="4.5" fill="#2B2A4C"/><circle cx="12" cy="-112" r="4.5" fill="#2B2A4C"/><circle cx="-10.4" cy="-113.6" r="1.6" fill="#fff"/><circle cx="13.6" cy="-113.6" r="1.6" fill="#fff"/></g><path d="M-11,-102 Q0,-88 11,-102 Z" fill="#E8505B" stroke="#2B2A4C" stroke-width="3" stroke-linejoin="round"/><ellipse cx="-22" cy="-102" rx="6" ry="4" fill="#FF8FA3" opacity=".6"/><ellipse cx="22" cy="-102" rx="6" ry="4" fill="#FF8FA3" opacity=".6"/><path d="M-26,-142 C-26,-172 26,-172 26,-142 Z" fill="#F2C14E" stroke="#B8892A" stroke-width="4" stroke-linejoin="round"/><path d="M-25,-150 H25 V-142 H-25 Z" fill="#E8505B"/><ellipse cx="0" cy="-142" rx="50" ry="10" fill="#F2C14E" stroke="#B8892A" stroke-width="4"/></g></g></svg>