<svg xmlns="http://www.w3.org/2000/svg" viewBox="0 0 240 240"><style>.tr{animation:tr .6s ease-in-out 10 both}@keyframes tr{0%,100%{transform:translateY(0)}50%{transform:translateY(-3px)}}.w1{transform-origin:68px 178px;animation:wh 1.2s linear 5 both}.w2{transform-origin:178px 178px;animation:wh 1.2s linear 5 both}@keyframes wh{0%{transform:rotate(0)}100%{transform:rotate(360deg)}}.lt{animation:lt .6s steps(1) 10 both}@keyframes lt{0%{opacity:1}50%{opacity:0}}.lt2{animation:lt2 .6s steps(1) 10 both}@keyframes lt2{0%{opacity:0}50%{opacity:1}}.gl{animation:lt .6s steps(1) 10 both}@media (prefers-reduced-motion:reduce){*{animation:none!important}}</style><path d="M216.8,122C215.7,136.4 212,150.2 206.6,163.7C201.2,177.2 195.2,192.7 184.7,203.1C174.2,213.6 158.4,223.2 143.8,226.3C129.2,229.4 110.8,227.3 97.2,222C83.6,216.6 73.1,203.9 62.4,194.2C51.7,184.6 41.1,175.9 33,163.9C24.9,151.9 15.3,136.6 14,122C12.6,107.4 17.4,89.1 24.7,76.1C32,63.1 45.3,51.3 57.8,44C70.2,36.6 85.4,35 99.4,31.9C113.5,28.8 127.8,24 142.1,25.4C156.3,26.8 173.3,31.6 185.2,40.2C197.1,48.9 207.9,63.5 213.2,77.1C218.5,90.7 217.9,107.6 216.8,122Z" fill="#FFF1C9"/><ellipse cx="122" cy="200" rx="96" ry="7" fill="#1B2340" opacity=".1"/><g class="tr"><path d="M164,94 L176,94" stroke="#7C8AA3" stroke-width="4"/><g class="lt"><circle cx="182" cy="74" r="14" fill="#FF6B6B" opacity=".35"/></g><path d="M174,86 Q174,74 182,74 Q190,74 190,86 Z" fill="#4DA3FF" stroke="#2E6FC0" stroke-width="3" stroke-linejoin="round"/><path class="lt" d="M174,86 Q174,74 182,74 Q190,74 190,86 Z" fill="#FF4D4D" stroke="#B82525" stroke-width="3" stroke-linejoin="round"/><path d="M152,88 H192 Q210,88 214,112 L218,146 V168 Q218,174 212,174 H152 Z" fill="#F03E3E" stroke="#A8222A" stroke-width="4" stroke-linejoin="round"/><path d="M164,98 H190 Q202,98 205,118 H164 Z" fill="#9FD8FF" stroke="#A8222A" stroke-width="3.5" stroke-linejoin="round"/><circle cx="180" cy="110" r="2.6" fill="#2B2A4C"/><circle cx="192" cy="110" r="2.6" fill="#2B2A4C"/><path d="M182,115 Q186,118 190,115" fill="none" stroke="#2B2A4C" stroke-width="2" stroke-linecap="round"/><rect x="24" y="110" width="132" height="64" rx="8" fill="#F03E3E" stroke="#A8222A" stroke-width="4"/><rect x="36" y="122" width="44" height="34" rx="5" fill="#C9D1DE" stroke="#A8222A" stroke-width="3"/><circle cx="58" cy="139" r="11" fill="#FFD43B" stroke="#C99A00" stroke-width="3"/><circle cx="58" cy="139" r="4" fill="#C99A00"/><rect x="92" y="122" width="52" height="34" rx="5" fill="#C9D1DE" stroke="#A8222A" stroke-width="3"/><path d="M100,130 H136 M100,139 H136 M100,148 H136" stroke="#8C98AE" stroke-width="3" stroke-linecap="round"/><path d="M24,160 H218" stroke="#fff" stroke-width="5"/><g fill="none" stroke="#9AA5B8" stroke-linecap="round"><path d="M30,100 L150,86 M34,110 L154,96" stroke-width="5"/><path d="M44,108 L42,98 M60,106 L58,96 M76,104 L74,94 M92,102 L90,92 M108,100 L106,90 M124,98 L122,88 M140,96 L138,86" stroke-width="4"/></g><path d="M26,110 L32,102 M150,108 V96" stroke="#7C8AA3" stroke-width="5" stroke-linecap="round"/><circle cx="212" cy="156" r="5" fill="#FFF3B0" stroke="#C99A00" stroke-width="2.5"/><rect x="200" y="166" width="22" height="10" rx="4" fill="#C9D1DE" stroke="#7C8AA3" stroke-width="3"/><g class="w1"><circle cx="68" cy="178" r="19" fill="#3A3A4A" stroke="#1B1B26" stroke-width="3.5"/><circle cx="68" cy="178" r="8" fill="#C9D1DE"/><path d="M68,166 V172 M68,184 V190 M56,178 H62 M74,178 H80" stroke="#C9D1DE" stroke-width="3" stroke-linecap="round"/></g><g class="w2"><circle cx="178" cy="178" r="19" fill="#3A3A4A" stroke="#1B1B26" stroke-width="3.5"/><circle cx="178" cy="178" r="8" fill="#C9D1DE"/><path d="M178,166 V172 M178,184 V190 M166,178 H172 M184,178 H190" stroke="#C9D1DE" stroke-width="3" stroke-linecap="round"/></g></g></svg>
